<svg xmlns="http://www.w3.org/2000/svg" width="158" height="49" viewBox="0 0 158 49">
    <g fill="#4A4A4A" fill-rule="evenodd">
        <path d="M149.64.392h7.929l-3.731 21.37-1.547 8.865-1.181 6.766-.13.74H135.975c-6.924 0-11.572-6.079-10.198-13.955 1.376-7.875 8.146-13.954 15.07-13.954h7.077L149.64.392zm-3.027 17.338h-5.49c-3.648 0-6.725 2.484-7.416 6.448-.692 3.964 1.517 6.449 5.165 6.449h5.49l2.251-12.897zM71.117 48.704H63.19l1.715-9.831.13-.74.086-.497 4.373-25.05.154-.882.13-.74H84.781c6.924 0 11.572 6.079 10.197 13.954-1.375 7.876-8.144 13.955-15.069 13.955h-7.077l-1.716 9.831zm-2.65-30.234l1.026-5.884-1.027 5.884zm5.677 12.897h5.49c3.648 0 6.725-2.485 7.417-6.449.691-3.964-1.518-6.448-5.165-6.448h-5.49l-2.252 12.897zM117.996 11.676l-7.792 16.174-3.044-16.174h-8.722l6.118 25.213c-1.726 3.224-3.673 4.387-7.373 4.387l-1.292 7.4c7.336.37 12.622-2.96 17.049-11.364l13.513-25.636h-8.457zM21.876 38.133h9.091l-5.504-13.585c4.43-2.061 7.898-6.184 8.691-10.73 1.228-7.03-3.441-12.685-10.47-12.685H6.663l-6.46 37h8.458L13.737 9.06h8.562c2.326 0 3.87 2.061 3.399 4.757-.471 2.696-2.735 4.757-5.06 4.757H13.9l7.976 19.558zM49.4 10.964c-6.924 0-13.694 6.079-15.07 13.954-1.373 7.876 3.274 13.954 10.198 13.954h15.006l.129-.74 1.181-6.765 2.251-12.897 1.182-6.766.129-.74H49.4zm3.515 20.403h-5.49c-3.648 0-5.857-2.485-5.165-6.449.692-3.964 3.768-6.448 7.416-6.448h5.49l-2.251 12.897z"/>
    </g>
</svg>
